<?xml version="1.0" encoding="UTF-8"?>
<svg width="194px" height="41px" viewBox="0 0 194 41" version="1.1" xmlns="http://www.w3.org/2000/svg" xmlns:xlink="http://www.w3.org/1999/xlink">
    <!-- Generator: Sketch 51.3 (57544) - http://www.bohemiancoding.com/sketch -->
    <title>primerica-color-logo copy</title>
    <desc>Created with Sketch.</desc>
    <defs>
        <polygon id="path-1" points="0.0546478873 0.0901690141 190.174648 0.0901690141 190.174648 40.0751174 0.0546478873 40.0751174"></polygon>
    </defs>
    <g id="Registration-(step-1)" stroke="none" stroke-width="1" fill="none" fill-rule="evenodd">
        <g id="REG-Step-1a-tablet-Copy" transform="translate(-24.000000, -30.000000)">
            <g id="Nav" transform="translate(24.000000, 30.000000)">
                <g id="primerica-color-logo-copy">
                    <path d="M53.5549296,18.3061315 L59.2929577,18.3061315 C60.9323944,18.3061315 61.5699531,17.2131737 61.5699531,16.3023756 C61.5699531,15.3915775 61.0234742,14.2986197 59.2929577,14.2986197 L53.5549296,14.2986197 L53.5549296,18.3061315 Z M50.2760563,11.2929859 L59.0197183,11.2929859 C62.9361502,11.2929859 64.8488263,13.2967418 64.8488263,16.3934554 C64.8488263,19.490169 62.9361502,21.4028451 59.0197183,21.4028451 L53.5549296,21.4028451 L53.5549296,28.8704789 L50.2760563,28.8704789 L50.2760563,11.2929859 Z" id="Fill-1" fill="#0A0B09"></path>
                    <path d="M71.2244131,18.3061315 L76.9624413,18.3061315 C78.6018779,18.3061315 79.2394366,17.2131737 79.2394366,16.3023756 C79.2394366,15.3915775 78.6929577,14.2986197 76.9624413,14.2986197 L71.2244131,14.2986197 L71.2244131,18.3061315 Z M68.0366197,11.2929859 L76.7802817,11.2929859 C80.6967136,11.2929859 82.6093897,13.2967418 82.6093897,16.3934554 C82.6093897,18.7615305 81.4253521,20.947446 78.1464789,21.4028451 L82.7915493,28.9624695 L78.9661972,28.9624695 L74.5032864,21.4939249 L71.315493,21.4939249 L71.315493,28.9624695 L68.0366197,28.9624695 L68.0366197,11.2929859 Z" id="Fill-2" fill="#0A0B09"></path>
                    <polygon id="Fill-3" fill="#0A0B09" points="85.8882629 28.8713897 89.1671362 28.8713897 89.1671362 11.2929859 85.8882629 11.2929859"></polygon>
                    <polyline id="Fill-4" fill="#0A0B09" points="93.5389671 11.2929859 95.8159624 11.2929859 101.280751 20.3098873 106.9277 11.2929859 109.113615 11.2929859 109.113615 28.8704789 105.925822 28.8704789 105.925822 18.2150516 101.371831 25.5014366 96.7267606 17.9418122 96.7267606 28.8704789 93.5389671 28.8704789 93.5389671 11.2929859"></polyline>
                    <polyline id="Fill-5" fill="#0A0B09" points="113.758685 11.2929859 127.147418 11.2929859 127.147418 14.3896995 116.946479 14.3896995 116.946479 18.3061315 124.141784 18.3061315 124.141784 21.4028451 116.946479 21.4028451 116.946479 25.8657559 127.147418 25.7746761 127.147418 28.8704789 113.758685 28.8704789 113.758685 11.2929859"></polyline>
                    <path d="M134.160563,18.3061315 L139.898592,18.3061315 C141.538028,18.3061315 142.175587,17.2131737 142.175587,16.3023756 C142.175587,15.3915775 141.629108,14.2986197 139.898592,14.2986197 L134.160563,14.2986197 L134.160563,18.3061315 Z M130.88169,11.2929859 L139.625352,11.2929859 C143.541784,11.2929859 145.45446,13.2967418 145.45446,16.3934554 C145.45446,18.7615305 144.270423,20.947446 140.991549,21.4028451 L145.63662,28.9624695 L141.811268,28.9624695 L137.348357,21.4939249 L134.160563,21.4939249 L134.160563,28.9624695 L130.88169,28.9624695 L130.88169,11.2929859 Z" id="Fill-6" fill="#0A0B09"></path>
                    <polygon id="Fill-7" fill="#0A0B09" points="148.824413 28.8713897 152.103286 28.8713897 152.103286 11.2929859 148.824413 11.2929859"></polygon>
                    <path d="M172.231925,25.6826854 C170.228169,28.1427512 167.495775,29.3258779 164.6723,29.3258779 C159.389671,29.3258779 155.2,25.319277 155.2,20.1277277 C155.2,14.9361784 159.389671,10.9286667 164.6723,10.9286667 C167.495775,10.9286667 170.228169,12.1127042 172.231925,14.5718592 L169.499531,16.575615 C168.406573,14.9361784 166.676056,14.0253803 164.6723,14.0253803 C161.484507,14.0253803 158.661033,16.6666948 158.661033,20.1277277 C158.661033,23.5887606 161.484507,26.2300751 164.6723,26.2300751 C166.676056,26.2300751 168.406573,25.319277 169.59061,23.7709202 L172.231925,25.6826854" id="Fill-8" fill="#0A0B09"></path>
                    <g id="Group-12">
                        <mask id="mask-2" fill="white">
                            <use xlink:href="#path-1"></use>
                        </mask>
                        <g id="Clip-10"></g>
                        <path d="M184.16338,22.6779624 L181.613146,16.3934554 L179.062911,22.6779624 L184.16338,22.6779624 Z M180.702347,11.2929859 L182.706103,11.2929859 L190.174648,28.8704789 L186.713615,28.8704789 L185.347418,25.5925164 L177.878873,25.5925164 L176.512676,28.8704789 L173.051643,28.8704789 L180.702347,11.2929859 Z" id="Fill-9" fill="#0A0B09" mask="url(#mask-2)"></path>
                        <path d="M30.1474178,13.1145822 C30.7849765,13.5699812 31.4225352,14.2075399 31.9690141,14.8450986 L32.0600939,14.9361784 L32.515493,15.3915775 C32.515493,13.1145822 31.2403756,11.1108263 29.3276995,10.1089484 L29.4187793,10.4732676 L29.5098592,10.6554272 L29.600939,10.8375869 C29.7830986,11.5662254 30.056338,12.2948638 30.1474178,13.0235023 L30.1474178,13.1145822 Z M9.10798122,15.2094178 C9.10798122,15.3915775 9.10798122,15.5737371 9.10798122,15.8469765 L9.65446009,15.2094178 C10.200939,14.5718592 10.656338,14.1164601 11.3849765,13.5699812 L11.4760563,13.5699812 L11.4760563,13.4789014 C11.658216,12.4770235 11.7492958,11.9305446 12.0225352,10.9286667 L12.2957746,9.92678873 C10.3830986,10.9286667 9.10798122,12.9324225 9.10798122,15.2094178 Z M28.2347418,20.8563662 L28.3258216,21.0385258 L28.5079812,20.947446 C29.7830986,20.4920469 30.7849765,19.5812488 31.513615,18.4882911 L31.6046948,18.3972113 L31.6046948,18.3061315 L31.513615,18.1239718 C31.513615,18.1239718 31.513615,18.1239718 31.513615,18.032892 L31.513615,17.9418122 L31.4225352,17.8507324 C29.1455399,14.662939 25.5023474,12.4770235 21.3126761,12.3859437 L21.1305164,12.3859437 L21.0394366,12.5681033 C20.6751174,13.3878216 20.4018779,14.2986197 20.4018779,15.2094178 C20.4018779,15.5737371 20.4018779,16.0291362 20.4929577,16.3934554 L20.4929577,16.6666948 L20.6751174,16.6666948 C20.7661972,16.6666948 20.857277,16.6666948 20.9483568,16.6666948 C24.0450704,16.6666948 26.7774648,18.3061315 28.2347418,20.8563662 Z M19.0356808,19.490169 C18.3070423,18.2150516 17.942723,16.8488545 17.942723,15.3004977 C17.942723,13.7521408 18.3981221,12.203784 19.1267606,11.0197465 L19.2178404,10.9286667 L19.2178404,10.8375869 L19.0356808,10.6554272 C18.0338028,9.83570892 16.8497653,9.28923005 15.4835681,9.19815023 L15.3014085,9.19815023 L15.2103286,9.38030986 C14.2084507,11.2019061 13.6619718,13.205662 13.6619718,15.3915775 C13.6619718,17.4864131 14.1173709,19.3990892 15.028169,21.1286948 L15.028169,21.2206854 L15.1192488,21.3117653 L15.1192488,21.4028451 L15.3014085,21.4028451 C16.6676056,21.3117653 17.942723,20.8563662 18.9446009,20.0366479 L19.0356808,19.9455681 L19.1267606,19.8544883 L19.0356808,19.490169 Z M2.45915493,15.2094178 C2.45915493,18.3972113 3.64319249,21.3117653 5.55586854,23.4976808 L5.92018779,23.9530798 L6.01126761,23.4056901 C6.19342723,21.6760845 6.64882629,20.1277277 7.28638498,18.7615305 L7.28638498,18.4882911 C6.83098592,17.4864131 6.55774648,16.3023756 6.55774648,15.118338 C6.55774648,10.4732676 10.3830986,6.64791549 15.028169,6.64791549 C17.7605634,6.64791549 20.1286385,7.92303286 21.6769953,9.92678873 L21.7680751,10.0178685 L21.8591549,10.0178685 C23.4985915,10.1089484 25.0469484,10.4732676 26.5042254,11.1108263 L27.0507042,11.2929859 L26.8685446,10.746507 C25.0469484,5.919277 20.4018779,2.45824413 15.028169,2.45824413 C8.10610329,2.54932394 2.45915493,8.1962723 2.45915493,15.2094178 Z M15.1192488,23.8610892 C15.028169,24.3164883 14.9370892,24.6817183 14.9370892,25.1371174 C14.9370892,26.0479155 15.1192488,26.8676338 15.4835681,27.6873521 L15.5746479,27.7784319 L15.5746479,27.8695117 L15.7568075,27.8695117 C20.0375587,27.5962723 23.6807512,25.319277 25.8666667,21.8582441 L25.9577465,21.7671643 L25.9577465,21.6760845 L25.8666667,21.4939249 C25.1380282,20.4009671 23.9539906,19.6723286 22.6788732,19.3080094 L22.4967136,19.3080094 L22.4056338,19.490169 C20.9483568,21.9493239 18.3981221,23.5887606 15.3924883,23.6798404 L15.2103286,23.6798404 L15.1192488,23.8610892 Z M26.5042254,27.9596808 L26.686385,27.9596808 C33.5173709,27.7784319 38.9821596,22.2225634 38.9821596,15.3004977 C39.0732394,8.28735211 33.4262911,2.64040376 26.4131455,2.64040376 C25.7755869,2.64040376 25.1380282,2.73148357 24.5004695,2.82256338 L23.9539906,2.91364319 L24.4093897,3.27796244 C25.684507,4.27984038 26.8685446,5.46387793 27.7793427,6.92115493 L27.7793427,7.01223474 L27.8704225,7.01223474 C31.8779343,7.74087324 34.8835681,11.1108263 34.8835681,15.3004977 C34.8835681,19.5812488 31.7868545,23.0422817 27.6882629,23.6798404 L27.5971831,23.6798404 L27.5061033,23.7709202 C26.5953052,25.1371174 25.4112676,26.3211549 24.0450704,27.3230329 L23.5896714,27.6873521 L24.1361502,27.7784319 C24.7737089,27.8695117 25.4112676,27.9596808 26.0488263,27.9596808 L26.5042254,27.9596808 Z M20.6751174,29.2357089 L20.4929577,29.2357089 C19.7643192,29.5089484 18.8535211,29.781277 18.0338028,29.8732676 L17.4873239,29.9643474 C18.4892019,30.6920751 19.6732394,31.0573052 20.9483568,31.0573052 C22.1323944,31.0573052 23.1342723,30.7840657 24.0450704,30.2366761 L23.0431925,29.9643474 L22.9521127,29.9643474 C21.9502347,29.781277 21.5859155,29.6000282 20.6751174,29.2357089 Z M20.9483568,37.7972113 L21.3126761,37.7972113 C26.686385,37.6150516 31.1492958,34.2450986 32.8798122,29.4178685 L33.0619718,28.8704789 L32.515493,29.1446291 C31.058216,29.781277 29.4187793,30.2366761 27.6882629,30.4197465 L27.5971831,30.4197465 L27.5061033,30.5108263 C25.9577465,32.4235023 23.5896714,33.6986197 20.9483568,33.6986197 C16.3032864,33.6986197 12.4779343,29.8732676 12.4779343,25.2272864 C12.4779343,24.2263192 12.6600939,23.3155211 12.9333333,22.494892 L12.9333333,22.404723 L12.8422535,22.3136432 C12.113615,20.8563662 11.5671362,19.3080094 11.2938967,17.577493 L11.2028169,17.0310141 L11.0206573,17.3953333 C9.38122066,19.5812488 8.37934272,22.2225634 8.37934272,25.1371174 C8.37934272,32.0582723 13.8441315,37.6150516 20.6751174,37.7972113 L20.9483568,37.7972113 Z M26.4131455,0.181248826 C34.7924883,0.181248826 41.5323944,6.92115493 41.5323944,15.3004977 C41.5323944,19.9455681 39.4375587,24.1352394 36.0676056,26.8676338 L35.9765258,26.8676338 L35.9765258,26.9587136 C35.0657277,34.3352676 28.6901408,40.0742066 21.0394366,40.0742066 L20.9483568,40.0742066 C13.3887324,40.1652864 7.10422535,34.6094178 6.10234742,27.4141127 L6.10234742,27.3230329 L6.01126761,27.2319531 C2.36807512,24.4084789 0,20.1277277 0,15.2094178 C0,6.83007512 6.7399061,0.0901690141 15.1192488,0.0901690141 C17.1230047,0.0901690141 19.0356808,0.454488263 20.857277,1.18312676 L21.0394366,1.18312676 C22.6788732,0.545568075 24.5004695,0.181248826 26.4131455,0.181248826 Z" id="Fill-11" fill="#0A0B09" mask="url(#mask-2)"></path>
                    </g>
                    <path d="M2.45915493,15.2094178 C2.45915493,18.3972113 3.64319249,21.3117653 5.55586854,23.4976808 L5.92018779,23.9530798 L6.01126761,23.4056901 C6.19342723,21.6760845 6.64882629,20.1277277 7.28638498,18.7615305 L7.28638498,18.4882911 C6.83098592,17.4864131 6.55774648,16.3023756 6.55774648,15.118338 C6.55774648,10.4732676 10.3830986,6.64791549 15.028169,6.64791549 C17.7605634,6.64791549 20.1286385,7.92303286 21.6769953,9.92678873 L21.6769953,10.0178685 L21.7680751,10.0178685 C23.4075117,10.1089484 24.9558685,10.4732676 26.4131455,11.1108263 L26.9596244,11.2929859 L26.7774648,10.746507 C24.9558685,5.919277 20.3107981,2.45824413 14.9370892,2.45824413 C8.10610329,2.54932394 2.45915493,8.1962723 2.45915493,15.2094178 M15.1192488,23.8610892 C15.028169,24.3164883 14.9370892,24.6817183 14.9370892,25.1371174 C14.9370892,26.0479155 15.1192488,26.8676338 15.4835681,27.6873521 L15.5746479,27.7784319 L15.5746479,27.8695117 L15.7568075,27.8695117 C20.0375587,27.5962723 23.6807512,25.319277 25.8666667,21.8582441 L25.9577465,21.7671643 L25.9577465,21.6760845 L25.8666667,21.4939249 C25.1380282,20.4009671 23.9539906,19.6723286 22.6788732,19.3080094 L22.4967136,19.3080094 L22.4056338,19.490169 C20.9483568,21.9493239 18.3981221,23.5887606 15.3924883,23.6798404 L15.2103286,23.6798404 L15.1192488,23.8610892" id="Fill-13" fill="#4A80B5"></path>
                    <path d="M19.0356808,19.490169 C18.3070423,18.2150516 17.942723,16.8488545 17.942723,15.3004977 C17.942723,13.7521408 18.3981221,12.203784 19.1267606,11.0197465 L19.2178404,10.9286667 L19.2178404,10.8375869 L19.0356808,10.6554272 C18.0338028,9.83570892 16.8497653,9.28923005 15.4835681,9.19815023 L15.3014085,9.19815023 L15.2103286,9.38030986 C14.2084507,11.2019061 13.6619718,13.205662 13.6619718,15.3915775 C13.6619718,17.4864131 14.1173709,19.3990892 15.028169,21.1286948 L15.028169,21.2206854 L15.1192488,21.3117653 L15.1192488,21.4028451 L15.3014085,21.4028451 C16.6676056,21.3117653 17.942723,20.8563662 18.9446009,20.0366479 L19.0356808,19.9455681 L19.1267606,19.8544883 L19.0356808,19.490169 M26.5042254,27.9596808 L26.686385,27.9596808 C33.5173709,27.7784319 38.9821596,22.2225634 38.9821596,15.3004977 C39.0732394,8.28735211 33.4262911,2.64040376 26.4131455,2.64040376 C25.7755869,2.64040376 25.1380282,2.73148357 24.5004695,2.82256338 L23.9539906,2.91364319 L24.4093897,3.27796244 C25.684507,4.27984038 26.8685446,5.46387793 27.7793427,6.92115493 L27.7793427,7.01223474 L27.8704225,7.01223474 C31.8779343,7.74087324 34.8835681,11.2019061 34.8835681,15.3004977 C34.8835681,19.5812488 31.7868545,23.0422817 27.6882629,23.6798404 L27.5971831,23.6798404 L27.5061033,23.7709202 C26.5953052,25.1371174 25.4112676,26.3211549 24.0450704,27.3230329 L23.5896714,27.6873521 L24.1361502,27.7784319 C24.7737089,27.8695117 25.4112676,27.9596808 26.0488263,27.9596808 L26.5042254,27.9596808" id="Fill-14" fill="#CE2A2B"></path>
                    <path d="M28.2347418,20.8563662 L28.3258216,21.0385258 L28.5079812,20.947446 C29.7830986,20.4920469 30.7849765,19.5812488 31.513615,18.4882911 L31.6046948,18.3972113 L31.513615,18.2150516 C31.513615,18.2150516 31.513615,18.2150516 31.513615,18.1239718 L31.513615,18.032892 L31.4225352,17.9418122 C29.1455399,14.7540188 25.5023474,12.5681033 21.3126761,12.4770235 L21.1305164,12.4770235 L21.0394366,12.6591831 C20.6751174,13.4789014 20.4018779,14.3896995 20.4018779,15.3004977 C20.4018779,15.6648169 20.4018779,16.120216 20.4929577,16.4845352 L20.4929577,16.7577746 L20.6751174,16.7577746 C20.7661972,16.7577746 20.857277,16.7577746 20.9483568,16.7577746 C24.0450704,16.6666948 26.7774648,18.3061315 28.2347418,20.8563662 M20.9483568,37.7972113 L21.3126761,37.7972113 C26.686385,37.6150516 31.1492958,34.2450986 32.8798122,29.4178685 L33.0619718,28.8704789 L32.515493,29.1446291 C31.058216,29.781277 29.4187793,30.2366761 27.6882629,30.4197465 L27.5971831,30.4197465 L27.5061033,30.5108263 C25.9577465,32.4235023 23.5896714,33.6986197 20.9483568,33.6986197 C16.3032864,33.6986197 12.4779343,29.8732676 12.4779343,25.2272864 C12.4779343,24.2263192 12.6600939,23.3155211 12.9333333,22.494892 L12.9333333,22.404723 L12.8422535,22.3136432 C12.113615,20.8563662 11.5671362,19.3080094 11.2938967,17.577493 L11.2028169,16.9399343 L11.0206573,17.3953333 C9.38122066,19.5812488 8.37934272,22.2225634 8.37934272,25.1371174 C8.37934272,32.0582723 13.8441315,37.6150516 20.6751174,37.7972113 L20.9483568,37.7972113" id="Fill-15" fill="#FFFFFE"></path>
                    <path d="M190.812207,13.2967418 L191.085446,13.2967418 C191.358685,13.2967418 191.631925,13.205662 191.631925,12.9324225 C191.631925,12.7502629 191.449765,12.5681033 191.176526,12.5681033 C190.994366,12.5681033 190.903286,12.5681033 190.903286,12.5681033 L190.903286,13.2967418 L190.812207,13.2967418 Z M190.721127,14.5718592 L190.174648,14.5718592 L190.174648,12.2948638 C190.356808,12.2948638 190.630047,12.203784 191.085446,12.203784 C191.540845,12.203784 191.723005,12.2948638 191.905164,12.3859437 C191.996244,12.4770235 192.087324,12.6591831 192.087324,12.8413427 C192.087324,13.1145822 191.905164,13.2967418 191.631925,13.3878216 C191.814085,13.4789014 191.996244,13.661061 192.087324,13.9343005 C192.178404,14.2986197 192.178404,14.3896995 192.269484,14.4807793 L191.723005,14.4807793 C191.631925,14.3896995 191.631925,14.2075399 191.540845,13.9343005 C191.540845,13.661061 191.358685,13.5699812 191.085446,13.5699812 L190.812207,13.5699812 L190.812207,14.5718592 L190.721127,14.5718592 Z M191.085446,11.6573052 C190.083568,11.6573052 189.35493,12.4770235 189.35493,13.4789014 C189.35493,14.4807793 190.083568,15.3004977 191.085446,15.3004977 C192.087324,15.3004977 192.815962,14.4807793 192.815962,13.4789014 C192.815962,12.4770235 192.087324,11.6573052 191.085446,11.6573052 Z M191.176526,11.2019061 C192.451643,11.2019061 193.453521,12.203784 193.453521,13.4789014 C193.453521,14.7540188 192.451643,15.7558967 191.176526,15.7558967 C189.901408,15.7558967 188.808451,14.7540188 188.808451,13.4789014 C188.808451,12.203784 189.810329,11.2019061 191.176526,11.2019061 Z" id="Fill-16" fill="#0A0B09"></path>
                </g>
            </g>
        </g>
    </g>
</svg>